<?xml version="1.0" encoding="utf-8"?>
<!-- Generator: Adobe Illustrator 24.3.0, SVG Export Plug-In . SVG Version: 6.00 Build 0)  -->
<svg version="1.1" id="Laag_1" xmlns="http://www.w3.org/2000/svg" xmlns:xlink="http://www.w3.org/1999/xlink" x="0px" y="0px"
	 viewBox="0 0 851.68 141.56" enable-background="new 0 0 851.68 141.56" xml:space="preserve">
<path fill="#EDBB2F" d="M76.83,33.26H34.86v22.41h38.24v29.52H34.86v52.64H0V3.73h76.83V33.26z"/>
<path fill="#EDBB2F" d="M174.29,114.53h-49.8l-8,23.3H79.32L130.36,3.73h38.06l51.04,134.09h-37.17L174.29,114.53z M165.04,88.03
	l-15.65-44.64l-15.65,44.64H165.04z"/>
<path fill="#EDBB2F" d="M234.75,137.83V3.73h34.86l64.38,81.98V3.73h34.68v134.09h-34.68l-64.38-81.99v81.99H234.75z"/>
<path fill="#EDBB2F" d="M396.76,3.73h51.93c12.33,0,21.7,2.96,28.1,8.89c6.4,5.93,9.6,14.47,9.6,25.61c0,6.76-1.22,12.36-3.65,16.81
	c-2.43,4.45-6.14,8.21-11.12,11.29c4.98,0.95,9.22,2.4,12.72,4.36c3.5,1.96,6.34,4.36,8.54,7.2c2.19,2.85,3.76,6.05,4.71,9.6
	c0.95,3.56,1.42,7.35,1.42,11.38c0,6.29-1.1,11.86-3.29,16.72c-2.2,4.86-5.28,8.95-9.25,12.27c-3.97,3.32-8.8,5.81-14.49,7.47
	c-5.69,1.66-12.09,2.49-19.21,2.49h-56.02V3.73z M431.62,56.38h6.4c10.91,0,16.36-4.33,16.36-12.98c0-8.65-5.45-12.98-16.36-12.98
	h-6.4V56.38z M431.62,110.8h7.65c8.77,0,15.06-1.12,18.85-3.38c3.79-2.25,5.69-5.87,5.69-10.85s-1.9-8.59-5.69-10.85
	c-3.8-2.25-10.08-3.38-18.85-3.38h-7.65V110.8z"/>
<path fill="#EDBB2F" d="M600.04,114.53h-49.8l-8,23.3h-37.17L556.11,3.73h38.06l51.04,134.09h-37.17L600.04,114.53z M590.79,88.03
	l-15.65-44.64l-15.65,44.64H590.79z"/>
<path fill="#EDBB2F" d="M734.13,38.06c-3.8-3.08-7.59-5.36-11.38-6.85c-3.8-1.48-7.47-2.22-11.03-2.22c-4.51,0-8.18,1.07-11.03,3.2
	c-2.85,2.13-4.27,4.92-4.27,8.36c0,2.37,0.71,4.33,2.13,5.87c1.42,1.54,3.29,2.88,5.6,4c2.31,1.13,4.92,2.11,7.83,2.93
	c2.9,0.83,5.78,1.72,8.62,2.67c11.38,3.8,19.71,8.86,24.99,15.21c5.27,6.34,7.91,14.61,7.91,24.81c0,6.88-1.16,13.1-3.47,18.67
	c-2.31,5.57-5.69,10.35-10.14,14.32c-4.45,3.97-9.9,7.06-16.36,9.25c-6.46,2.19-13.78,3.29-21.96,3.29
	c-16.96,0-32.66-5.04-47.13-15.12l14.94-28.1c5.22,4.62,10.37,8.06,15.47,10.31c5.1,2.25,10.14,3.38,15.12,3.38
	c5.69,0,9.93-1.3,12.72-3.91c2.78-2.61,4.18-5.57,4.18-8.89c0-2.01-0.36-3.76-1.07-5.25c-0.71-1.48-1.9-2.85-3.56-4.09
	c-1.66-1.25-3.82-2.4-6.49-3.47c-2.67-1.07-5.9-2.25-9.69-3.56c-4.51-1.42-8.92-2.99-13.25-4.71c-4.33-1.72-8.18-4-11.56-6.85
	c-3.38-2.85-6.11-6.43-8.18-10.76c-2.08-4.33-3.11-9.81-3.11-16.45c0-6.64,1.1-12.65,3.29-18.05c2.19-5.39,5.27-10.02,9.25-13.87
	c3.97-3.85,8.83-6.85,14.58-8.98c5.75-2.13,12.18-3.2,19.3-3.2c6.64,0,13.57,0.92,20.81,2.76c7.23,1.84,14.17,4.54,20.81,8.09
	L734.13,38.06z"/>
<path fill="#EDBB2F" d="M851.68,33.26h-41.44v22.41h39.13v29.52h-39.13v23.12h41.44v29.52h-76.29V3.73h76.29V33.26z"/>
</svg>
